<?xml version="1.0" encoding="UTF-8"?>
<svg width="1440px" height="226px" viewBox="0 0 1440 226" version="1.1" xmlns="http://www.w3.org/2000/svg" xmlns:xlink="http://www.w3.org/1999/xlink">
    <!-- Generator: Sketch 49 (51002) - http://www.bohemiancoding.com/sketch -->
    <title>Background Copy</title>
    <desc>Created with Sketch.</desc>
    <defs>
        <polygon id="path-1" points="40.5 0 108 58 156 21 228 32 318.5 82 358.5 0 459 82 563 0 590 32 691 58 767.5 0 889 58 983 0 1034 32 1080 0 1127.5 82 1209.5 32 1302.5 49 1342 0 1380 21 1440 0 1440 226 0 226 0 0"></polygon>
        <polygon id="path-3" points="0 0 1440 0 1440 655 1380 676 1342 655 1302.5 704 1209.5 687 1127.5 737 1080 655 1034 687 983 655 889 713 767.5 655 690.5 713 590 687 563 655 459 737 358.5 655 318.5 737 228 687 156 676 108 713 40.5 655 0 655"></polygon>
        <filter x="-8.4%" y="-13.7%" width="116.8%" height="132.8%" filterUnits="objectBoundingBox" id="filter-4">
            <feOffset dx="0" dy="20" in="SourceAlpha" result="shadowOffsetOuter1"></feOffset>
            <feGaussianBlur stdDeviation="37" in="shadowOffsetOuter1" result="shadowBlurOuter1"></feGaussianBlur>
            <feComposite in="shadowBlurOuter1" in2="SourceAlpha" operator="out" result="shadowBlurOuter1"></feComposite>
            <feColorMatrix values="0 0 0 0 0   0 0 0 0 0   0 0 0 0 0  0 0 0 0.386209239 0" type="matrix" in="shadowBlurOuter1"></feColorMatrix>
        </filter>
    </defs>
    <g id="Page-1" stroke="none" stroke-width="1" fill="none" fill-rule="evenodd">
        <g id="Background-Copy">
            <mask id="mask-2" fill="white">
                <use xlink:href="#path-1"></use>
            </mask>
            <use id="Mask" fill="#FFFFFF" xlink:href="#path-1"></use>
            <g mask="url(#mask-2)" id="gradient-background">
                <g transform="translate(0.000000, -655.000000)">
                    <g>
                        <use fill="black" fill-opacity="1" filter="url(#filter-4)" xlink:href="#path-3"></use>
                        <use fill-opacity="0" fill="#F00000" fill-rule="evenodd" xlink:href="#path-3"></use>
                    </g>
                </g>
            </g>
        </g>
    </g>
</svg>