<?xml version="1.0" encoding="utf-8"?>
<!-- Generator: Adobe Illustrator 15.0.0, SVG Export Plug-In . SVG Version: 6.00 Build 0)  -->
<!DOCTYPE svg PUBLIC "-//W3C//DTD SVG 1.1//EN" "http://www.w3.org/Graphics/SVG/1.1/DTD/svg11.dtd">
<svg version="1.1" id="Layer_1" xmlns="http://www.w3.org/2000/svg" xmlns:xlink="http://www.w3.org/1999/xlink" x="0px" y="0px"
	 width="108px" height="19px" viewBox="0 0 108 19" enable-background="new 0 0 108 19" xml:space="preserve">
<g>
	<path fill="#50E3C2" d="M18.016,1.2V18h-1.932V3.36l-5.856,12.781H8.2L2.356,3.456V18H0.424V1.2h2.928L9.22,13.896L15.076,1.2
		H18.016z M33.292,6.636V18h-1.788v-1.691c-0.9,1.164-2.28,1.92-4.152,1.92c-3.192,0-5.676-2.496-5.676-5.916
		c0-3.409,2.484-5.904,5.676-5.904c1.872,0,3.252,0.768,4.152,1.92V6.636H33.292z M27.568,8.088c-2.436,0-4.068,1.884-4.068,4.225
		c0,2.352,1.656,4.235,4.068,4.235c2.364,0,4.044-1.823,4.044-4.235C31.612,9.912,29.932,8.088,27.568,8.088z M39.292,0.72v10.524
		h1.644l4.38-4.608h2.244l-5.16,5.353L47.644,18h-2.268l-4.452-5.124h-1.632V18h-1.8V0.72H39.292z M54.964,6.408
		c3.084,0,5.315,2.412,5.341,5.867c0,0.229-0.013,0.469-0.037,0.673H51.16c0.252,2.448,1.968,3.708,4.02,3.708
		c1.404,0,2.629-0.54,3.6-1.428l0.961,1.224c-1.416,1.356-3,1.776-4.668,1.776c-3.36,0-5.748-2.389-5.748-5.904
		C49.324,8.844,51.724,6.408,54.964,6.408L54.964,6.408z M54.928,8.004c-2.1,0-3.456,1.44-3.744,3.492h7.296
		C58.252,9.372,56.859,8.004,54.928,8.004z M68.788,6.408c0.815,0,1.487,0.108,2.088,0.384l-0.433,1.764
		c-0.551-0.3-1.307-0.456-1.967-0.456c-1.776,0-3.049,1.392-3.049,3.541V18h-1.787V6.636h1.775v1.596
		C66.195,7.068,67.396,6.408,68.788,6.408z"/>
	<path fill="#201F38" d="M82.924,0.888c5.172,0,8.832,3.696,8.832,8.712s-3.66,8.712-8.832,8.712s-8.82-3.696-8.82-8.712
		S77.752,0.888,82.924,0.888z M82.924,4.104c-3.084,0-5.328,2.232-5.328,5.496s2.244,5.496,5.328,5.496
		c3.096,0,5.328-2.231,5.328-5.496S86.02,4.104,82.924,4.104z M107.752,2.7l-1.584,2.736c-1.32-0.816-2.928-1.428-4.764-1.428
		c-1.885,0-3.217,0.744-3.217,2.016c0,1.236,1.453,1.608,3.469,1.944l0.947,0.156c3,0.492,5.353,1.776,5.353,4.704
		c0,3.708-3.265,5.472-6.876,5.472c-2.544,0-5.28-0.743-7.08-2.196l1.74-2.699c1.212,0.972,3.191,1.812,5.352,1.812
		c1.86,0,3.301-0.731,3.301-2.028c0-1.164-1.225-1.596-3.564-1.968l-1.068-0.168c-2.964-0.468-5.124-1.776-5.124-4.812
		c0-3.504,3.12-5.328,6.696-5.328C103.684,0.912,105.641,1.44,107.752,2.7L107.752,2.7z"/>
	<path fill="#50E3C2" d="M83,7.6c-1.158,0-2,0.812-2,2s0.842,2,2,2c1.162,0,2-0.812,2-2S84.162,7.6,83,7.6z"/>
</g>
</svg>
